<svg xmlns="http://www.w3.org/2000/svg" version="1.1" xmlns:xlink="http://www.w3.org/1999/xlink" xmlns:svgjs="http://svgjs.dev/svgjs" width="1500" height="1500" viewBox="0 0 1500 1500"><g transform="matrix(1,0,0,1,-0.21332335329316265,-0.21332335329350371)"><svg viewBox="0 0 334 334" data-background-color="#ffffff" preserveAspectRatio="xMidYMid meet" height="1500" width="1500" xmlns="http://www.w3.org/2000/svg" xmlns:xlink="http://www.w3.org/1999/xlink"><g id="tight-bounds" transform="matrix(1,0,0,1,0.04749999999998522,0.04750000000001364)"><svg viewBox="0 0 333.90454557049503 333.90454557049503" height="333.90454557049503" width="333.90454557049503"><g><svg></svg></g><g><svg viewBox="0 0 333.90454557049503 333.90454557049503" height="333.90454557049503" width="333.90454557049503"><g><path d="M0 166.952c0-92.205 74.747-166.952 166.952-166.952 92.205 0 166.952 74.747 166.953 166.952 0 92.205-74.747 166.952-166.953 166.953-92.205 0-166.952-74.747-166.952-166.953zM166.952 325.377c87.496 0 158.425-70.929 158.425-158.425 0-87.496-70.929-158.425-158.425-158.424-87.496 0-158.425 70.929-158.424 158.424 0 87.496 70.929 158.425 158.424 158.425z" data-fill-palette-color="tertiary" fill="#0c0c0c" stroke="transparent"></path><ellipse rx="160.27418187383762" ry="160.27418187383762" cx="166.95227278524752" cy="166.95227278524752" fill="#0c0c0c" stroke="transparent" stroke-width="0" fill-opacity="1" data-fill-palette-color="tertiary"></ellipse></g><g transform="matrix(1,0,0,1,101.43280179651948,71.17305217166896)"><svg viewBox="0 0 131.03894197745606 191.55844122715712" height="191.55844122715712" width="131.03894197745606"><g><svg viewBox="0 0 131.03894197745606 191.55844122715712" height="191.55844122715712" width="131.03894197745606"><g><svg viewBox="0 0 213.1584412271571 311.6043072364671" height="191.55844122715712" width="131.03894197745606"><g transform="matrix(1,0,0,1,0,157.78408991347303)"><svg viewBox="0 0 213.1584412271571 153.8202173229941" height="153.8202173229941" width="213.1584412271571"><g id="textblocktransform"><svg viewBox="0 0 213.1584412271571 153.8202173229941" height="153.8202173229941" width="213.1584412271571" id="textblock"><g><svg viewBox="0 0 213.1584412271571 153.8202173229941" height="153.8202173229941" width="213.1584412271571"><g transform="matrix(1,0,0,1,0,0)"><svg width="213.1584412271571" viewBox="0.75 -36.6 60.35 43.550000000000004" height="153.8202173229941" data-palette-color="#ffffff"><path d="M9.45 6.95L9.45 6.95Q7.2 6.95 5.2 5.95 3.2 4.95 1.98 3.2 0.75 1.45 0.75-0.75L0.75-0.75 1.35-1.05Q3.7 0.7 6.05 0.7L6.05 0.7Q7.4 0.7 8.6-0.05 9.8-0.8 10.73-2.7 11.65-4.6 12.18-7.95 12.7-11.3 12.7-16.55L12.7-16.55Q12.7-21 13.28-23.95 13.85-26.9 15.65-29.35L15.65-29.35Q15-29.8 14.13-30.18 13.25-30.55 12.3-30.55L12.3-30.55Q10.7-30.55 9.68-29.38 8.65-28.2 8.65-26.4L8.65-26.4Q8.65-25.45 8.97-24.4 9.3-23.35 10-22.3L10-22.3Q7-22.3 5.03-23.38 3.05-24.45 2.08-26.1 1.1-27.75 1.1-29.55L1.1-29.55Q1.1-31.35 1.98-32.95 2.85-34.55 4.6-35.58 6.35-36.6 8.85-36.6L8.85-36.6Q10.8-36.6 13.2-35.83 15.6-35.05 18.45-33.25L18.45-33.25Q20.2-35.3 21.6-35.8 23-36.3 23.8-36.3L23.8-36.3Q25.85-36.3 26.8-34.93 27.75-33.55 27.75-31.65L27.75-31.65Q27.75-30.4 27.28-29.2 26.8-28 25.8-27.23 24.8-26.45 23.2-26.45L23.2-26.45Q22.7-26.45 22.13-26.55 21.55-26.65 20.85-26.9L20.85-26.9Q20.5-26 20.35-24.8 20.2-23.6 20.2-22.2L20.2-22.2Q20.2-19.45 20.5-16.32 20.8-13.2 20.8-10.2L20.8-10.2Q20.8-5.5 19.8-2.23 18.8 1.05 17.15 3.08 15.5 5.1 13.5 6.03 11.5 6.95 9.45 6.95ZM41.85 0.2L41.85 0.2Q40.4 0.25 38.95-0.05 37.5-0.35 36.5-1.3L36.5-1.3Q36.55-2.55 36.47-5 36.4-7.45 36.2-10.48 36-13.5 35.57-16.6 35.15-19.7 34.47-22.33 33.8-24.95 32.85-26.55 31.9-28.15 30.6-28.15L30.6-28.15Q29.45-28.15 28-26.9L28-26.9 27.65-27.2Q29.05-31.5 31.32-33.75 33.6-36 36.05-36L36.05-36Q38.2-36 39.65-34.5 41.1-33 41.97-30.48 42.85-27.95 43.22-24.83 43.6-21.7 43.6-18.45L43.6-18.45Q43.6-15.85 43.4-13.35 43.2-10.85 42.85-8.75L42.85-8.75Q45.5-12.1 47.3-16.07 49.1-20.05 50.05-23.98 51-27.9 51-31.05L51-31.05Q51-31.65 50.95-32.27 50.9-32.9 50.8-33.4L50.8-33.4Q51.85-34.75 53.5-35.48 55.15-36.2 56.8-36.2L56.8-36.2Q58.4-36.2 59.6-35.52 60.8-34.85 61.1-33.4L61.1-33.4Q60.45-28.65 58.52-23.9 56.6-19.15 53.85-14.73 51.1-10.3 47.97-6.5 44.85-2.7 41.85 0.2Z" opacity="1" transform="matrix(1,0,0,1,0,0)" fill="#ffffff" class="wordmark-text-0" data-fill-palette-color="quaternary" id="text-0"></path></svg></g></svg></g></svg></g></svg></g><g transform="matrix(1,0,0,1,40.713262274387006,0)"><svg viewBox="0 0 131.7319166783831 121.47082828872986" height="121.47082828872986" width="131.7319166783831"><g><svg xmlns="http://www.w3.org/2000/svg" xml:space="preserve" viewBox="50 66 412.1 380" x="0" y="0" height="121.47082828872986" width="131.7319166783831" class="icon-icon-0" data-fill-palette-color="quaternary" id="icon-0"><path d="M50 326.9c0 12.8 10.7 23.1 23.6 23.1h364.9c12.8 0 23.6-10.3 23.6-23.1V306H50zM263.2 179.2c0-4.5-3.7-8.2-8.2-8.2s-8.2 3.7-8.2 8.2 3.7 8.2 8.2 8.2c4.6 0 8.2-3.7 8.2-8.2M255.1 116.1c-4.5 0-8.2 3.7-8.2 8.2s3.7 8.2 8.2 8.2 8.2-3.7 8.2-8.2c-0.1-4.5-3.7-8.2-8.2-8.2M255.1 227.7c-4.5 0-8.2 3.7-8.2 8.2s3.7 8.2 8.2 8.2 8.2-3.7 8.2-8.2c-0.1-4.5-3.7-8.2-8.2-8.2M200.2 171c-4.5 0-8.2 3.7-8.2 8.2s3.7 8.2 8.2 8.2 8.2-3.7 8.2-8.2c0-4.6-3.7-8.2-8.2-8.2M200.2 132.5c4.5 0 8.2-3.7 8.2-8.2s-3.7-8.2-8.2-8.2-8.2 3.7-8.2 8.2 3.7 8.2 8.2 8.2M200.2 227.7c-4.5 0-8.2 3.7-8.2 8.2s3.7 8.2 8.2 8.2 8.2-3.7 8.2-8.2-3.7-8.2-8.2-8.2" fill="#ffffff" data-fill-palette-color="quaternary"></path><path d="M438.4 66H73.6C60.7 66 50.2 76.4 50 89.2V294h412V89.2c-0.2-12.8-10.7-23.2-23.6-23.2m-146.8 58.3c0-11.1 9-20.2 20.2-20.2s20.2 9 20.2 20.2-9 20.2-20.2 20.2-20.2-9-20.2-20.2m-91.4 131.8c-11.2 0-20.2-9-20.2-20.2s9-20.2 20.2-20.2 20.2 9 20.2 20.2-9.1 20.2-20.2 20.2m75-20.2c0 11.2-9 20.2-20.1 20.3-11.2 0-20.2-9-20.3-20.1 0-1.8 0.2-3.6 0.7-5.3L203.8 199c-11 2-21.5-5.2-23.6-16.2-0.2-1.2-0.3-2.4-0.3-3.7 0-8.7 6.1-16.1 13.1-18.9v-17c-7-2.8-13.1-10.2-13.1-18.9 0-11.1 9-20.2 20.2-20.2s20.2 9 20.2 20.2c0.1 9.3-6.2 17.3-15.2 19.5v15.8c10.8 2.7 17.4 13.7 14.7 24.5-0.8 3.4-2.5 6.4-4.9 8.9l27.4 27.3c2.3-1.9 5-3.3 7.9-4v-17.7c-10.8-2.8-17.3-13.8-14.5-24.6s13.8-17.3 24.6-14.5 17.3 13.8 14.5 24.6c-1.7 6.4-6.4 11.6-12.6 13.9v19c7.7 2.9 13 10.5 13 18.9m43.8-37.8V217c7 2.8 13.1 10.2 13.1 18.9 0 11.1-9 20.2-20.2 20.2-11.1 0-20.2-9-20.2-20.2-0.1-9.3 6.2-17.3 15.2-19.5v-17.7c-10.8-2.7-17.4-13.7-14.6-24.5 0.3-1.3 0.8-2.6 1.4-3.9l-28.5-28.6c-9.7 5.7-22.1 2.5-27.8-7.1-5.7-9.7-2.5-22.1 7.1-27.8 9.7-5.7 22.1-2.5 27.8 7.1 3.4 5.8 3.8 12.9 0.9 18.9l28.6 28.8c3-1.7 6.4-2.6 9.9-2.6 11.2 0 20.2 9 20.3 20.2 0.1 8.6-6 16.1-13 18.9" fill="#ffffff" data-fill-palette-color="quaternary"></path><path d="M311.8 132.5c4.5 0 8.2-3.7 8.2-8.2s-3.7-8.2-8.2-8.2-8.2 3.7-8.2 8.2 3.7 8.2 8.2 8.2M311.8 171c-4.5 0-8.2 3.7-8.2 8.2s3.7 8.2 8.2 8.2 8.2-3.7 8.2-8.2c0-4.6-3.7-8.2-8.2-8.2M311.8 227.7c-4.5 0-8.2 3.7-8.2 8.2s3.7 8.2 8.2 8.2 8.2-3.7 8.2-8.2-3.7-8.2-8.2-8.2M351.2 434H318v-78H194v78h-27.9c-3.3 0-6 2.7-6 6s2.7 6 6 6h185c3.3 0 6-2.7 6-6s-2.6-6-5.9-6" fill="#ffffff" data-fill-palette-color="quaternary"></path></svg></g></svg></g><g></g></svg></g></svg></g></svg></g></svg></g><defs></defs></svg><rect width="333.90454557049503" height="333.90454557049503" fill="none" stroke="none" visibility="hidden"></rect></g></svg></g></svg>